<svg xmlns="http://www.w3.org/2000/svg" viewBox="0 0 1240 1320" width="100%" preserveAspectRatio="xMidYMid meet" font-family="ui-monospace, 'SFMono-Regular', Menlo, Consolas, monospace">
  <defs>
    <marker id="arrow" viewBox="0 0 10 10" refX="9" refY="5" markerWidth="8" markerHeight="8" orient="auto-start-reverse">
      <path d="M0,0 L10,5 L0,10 z" fill="#f8f8f2"/>
    </marker>
    <style>
      .bg { fill: #282a36; }
      .panel { fill: #44475a; stroke-width: 2; }
      .p-cyan { stroke: #8be9fd; } .p-purple { stroke: #bd93f9; } .p-orange { stroke: #ffb86c; } .p-green { stroke: #50fa7b; } .p-pink { stroke: #ff79c6; }
      .title { fill: #f8f8f2; font-size: 20px; font-weight: 700; }
      .h1 { fill: #f8f8f2; font-size: 18px; font-weight: 700; }
      .h2 { fill: #f8f8f2; font-size: 14px; font-weight: 700; }
      .sub { fill: #f8f8f2; font-size: 12px; }
      .small { fill: #f8f8f2; font-size: 10px; }
      .label { fill: #f1fa8c; font-size: 11px; font-style: italic; }
      .conn { stroke: #f8f8f2; stroke-width: 1.8; fill: none; }
      .conn-dot { stroke: #6272a4; stroke-width: 1.5; fill: none; stroke-dasharray: 4 4; }
      .box { fill: #282a36; stroke-width: 1.5; }
      .tier-label { fill: #6272a4; font-size: 11px; text-transform: uppercase; letter-spacing: 1px; }
      .accent-cyan { fill: #8be9fd; } .accent-purple { fill: #bd93f9; } .accent-green { fill: #50fa7b; } .accent-orange { fill: #ffb86c; } .accent-pink { fill: #ff79c6; }
    </style>
  </defs>
  <rect class="bg" width="1240" height="1320"/>

  <!-- Header -->
  <text x="620" y="42" text-anchor="middle" class="title">Three Workflows You Get on Day One</text>
  <text x="620" y="68" text-anchor="middle" class="sub">Loaded automatically on first launch. Each shows a different pattern you can copy.</text>

  <!-- ================= ROW 1: AI ASSISTANT (purple) ================= -->
  <rect class="panel p-purple" x="30" y="95" width="1180" height="340" rx="10"/>
  <text x="50" y="129" class="h1 accent-purple">AI Assistant</text>
  <text x="50" y="151" class="sub">16 nodes &#183; one smart agent with a full toolbox</text>

  <!-- triggers -->
  <rect class="box p-orange" x="50" y="175" width="180" height="40" rx="6"/>
  <text x="140" y="200" text-anchor="middle" class="h2">Chat Trigger</text>
  <rect class="box p-orange" x="50" y="235" width="180" height="40" rx="6"/>
  <text x="140" y="260" text-anchor="middle" class="h2">Telegram Receive</text>

  <!-- agent -->
  <rect class="box p-purple" x="380" y="195" width="200" height="60" rx="8"/>
  <text x="480" y="230" text-anchor="middle" class="h2">AI Agent</text>

  <path class="conn" d="M 230 195 L 380 213" marker-end="url(#arrow)"/>
  <path class="conn" d="M 230 255 L 380 237" marker-end="url(#arrow)"/>

  <!-- outputs -->
  <rect class="box p-pink" x="700" y="175" width="180" height="40" rx="6"/>
  <text x="790" y="200" text-anchor="middle" class="h2">Console</text>
  <rect class="box p-pink" x="700" y="235" width="180" height="40" rx="6"/>
  <text x="790" y="260" text-anchor="middle" class="h2">Telegram Send</text>

  <path class="conn" d="M 580 213 L 700 195" marker-end="url(#arrow)"/>
  <path class="conn" d="M 580 237 L 700 255" marker-end="url(#arrow)"/>

  <!-- dotted attachment note -->
  <path class="conn-dot" d="M 560 195 L 560 160 L 1020 160 L 1020 175"/>
  <rect class="box p-cyan" x="930" y="175" width="250" height="44" rx="6"/>
  <text x="1055" y="193" text-anchor="middle" class="sub">Memory + Skills</text>
  <text x="1055" y="209" text-anchor="middle" class="sub">attached to the agent</text>

  <!-- toolbox cluster -->
  <path class="conn-dot" d="M 480 255 L 480 305"/>
  <rect class="box p-purple" x="380" y="305" width="560" height="80" rx="8"/>
  <text x="660" y="329" text-anchor="middle" class="h2 accent-purple">Toolbox (9 tools)</text>
  <text x="660" y="351" text-anchor="middle" class="small">web search &#183; browser &#183; file read/write &#183; fs search</text>
  <text x="660" y="369" text-anchor="middle" class="small">shell &#183; Python &#183; processes &#183; todos</text>

  <text x="50" y="415" class="sub"><tspan class="accent-purple">Use when:</tspan> one AI that browses, runs code, and chats over Telegram.</text>

  <!-- ================= ROW 2: AI EMPLOYEE (cyan) ================= -->
  <rect class="panel p-cyan" x="30" y="465" width="1180" height="410" rx="10"/>
  <text x="50" y="499" class="h1 accent-cyan">AI Employee</text>
  <text x="50" y="521" class="sub">58 nodes &#183; a team lead that delegates to 5 specialists</text>

  <!-- triggers -->
  <rect class="box p-orange" x="50" y="541" width="180" height="40" rx="6"/>
  <text x="140" y="566" text-anchor="middle" class="h2">Chat Trigger</text>
  <rect class="box p-orange" x="50" y="599" width="180" height="40" rx="6"/>
  <text x="140" y="624" text-anchor="middle" class="h2">Telegram Receive</text>
  <rect class="box p-orange" x="50" y="657" width="180" height="40" rx="6"/>
  <text x="140" y="682" text-anchor="middle" class="h2">Task Completed</text>

  <!-- team lead -->
  <rect class="box p-cyan" x="380" y="589" width="200" height="60" rx="8"/>
  <text x="480" y="613" text-anchor="middle" class="h2">Zeenie</text>
  <text x="480" y="633" text-anchor="middle" class="small">team lead</text>

  <path class="conn" d="M 230 561 L 380 604" marker-end="url(#arrow)"/>
  <path class="conn" d="M 230 619 L 380 619" marker-end="url(#arrow)"/>
  <path class="conn" d="M 230 677 L 380 634" marker-end="url(#arrow)"/>

  <!-- outputs -->
  <rect class="box p-pink" x="700" y="570" width="180" height="40" rx="6"/>
  <text x="790" y="595" text-anchor="middle" class="h2">Console</text>
  <rect class="box p-pink" x="700" y="628" width="180" height="40" rx="6"/>
  <text x="790" y="653" text-anchor="middle" class="h2">Telegram Send</text>

  <path class="conn" d="M 580 609 L 700 590" marker-end="url(#arrow)"/>
  <path class="conn" d="M 580 629 L 700 648" marker-end="url(#arrow)"/>

  <!-- dotted attachment note -->
  <path class="conn-dot" d="M 560 589 L 560 553 L 1020 553 L 1020 599"/>
  <rect class="box p-purple" x="930" y="599" width="250" height="44" rx="6"/>
  <text x="1055" y="617" text-anchor="middle" class="sub">own Memory + Skills</text>
  <text x="1055" y="633" text-anchor="middle" class="sub">+ todos + processes</text>

  <!-- delegation trunk + bus -->
  <path class="conn" d="M 480 649 L 480 715"/>
  <text x="495" y="690" class="label">delegates to</text>
  <path class="conn" d="M 210 715 L 1050 715"/>
  <path class="conn" d="M 210 715 L 210 746" marker-end="url(#arrow)"/>
  <path class="conn" d="M 450 715 L 450 746" marker-end="url(#arrow)"/>
  <path class="conn" d="M 670 715 L 670 746" marker-end="url(#arrow)"/>
  <path class="conn" d="M 860 715 L 860 746" marker-end="url(#arrow)"/>
  <path class="conn" d="M 1050 715 L 1050 746" marker-end="url(#arrow)"/>

  <!-- specialists -->
  <rect class="box p-cyan" x="110" y="747" width="200" height="56" rx="6"/>
  <text x="210" y="770" text-anchor="middle" class="h2">Coding Agent</text>
  <text x="210" y="790" text-anchor="middle" class="small">files &#183; shell &#183; Python</text>

  <rect class="box p-cyan" x="335" y="747" width="230" height="56" rx="6"/>
  <text x="450" y="770" text-anchor="middle" class="h2">Productivity Agent</text>
  <text x="450" y="790" text-anchor="middle" class="small">Gmail &#183; Calendar &#183; Drive &#183; Sheets</text>

  <rect class="box p-cyan" x="590" y="747" width="160" height="56" rx="6"/>
  <text x="670" y="770" text-anchor="middle" class="h2">Travel Agent</text>
  <text x="670" y="790" text-anchor="middle" class="small">Maps &#183; places</text>

  <rect class="box p-cyan" x="775" y="747" width="170" height="56" rx="6"/>
  <text x="860" y="770" text-anchor="middle" class="h2">Web Agent</text>
  <text x="860" y="790" text-anchor="middle" class="small">browser &#183; HTTP &#183; search</text>

  <rect class="box p-cyan" x="970" y="747" width="160" height="56" rx="6"/>
  <text x="1050" y="770" text-anchor="middle" class="h2">Social Agent</text>
  <text x="1050" y="790" text-anchor="middle" class="small">Twitter &#183; WhatsApp</text>

  <text x="620" y="828" text-anchor="middle" class="small">each specialist has its own memory &#183; skills &#183; tools &#183; console</text>

  <text x="50" y="856" class="sub"><tspan class="accent-cyan">Use when:</tspan> one chat handles everything, each domain gets a real specialist.</text>

  <!-- ================= ROW 3: CLAUDE ASSISTANT (green) ================= -->
  <rect class="panel p-green" x="30" y="905" width="1180" height="340" rx="10"/>
  <text x="50" y="939" class="h1 accent-green">Claude Assistant</text>
  <text x="50" y="961" class="sub">15 nodes &#183; Claude Code in a workflow, sessions persist across days</text>

  <!-- triggers -->
  <rect class="box p-orange" x="50" y="985" width="180" height="40" rx="6"/>
  <text x="140" y="1010" text-anchor="middle" class="h2">Chat Trigger</text>
  <rect class="box p-orange" x="50" y="1045" width="180" height="40" rx="6"/>
  <text x="140" y="1070" text-anchor="middle" class="h2">Telegram Receive</text>

  <!-- agent -->
  <rect class="box p-green" x="380" y="1005" width="200" height="60" rx="8"/>
  <text x="480" y="1040" text-anchor="middle" class="h2">Claude Code</text>

  <path class="conn" d="M 230 1005 L 380 1023" marker-end="url(#arrow)"/>
  <path class="conn" d="M 230 1065 L 380 1047" marker-end="url(#arrow)"/>

  <!-- outputs -->
  <rect class="box p-pink" x="700" y="985" width="180" height="40" rx="6"/>
  <text x="790" y="1010" text-anchor="middle" class="h2">Console</text>
  <rect class="box p-pink" x="700" y="1045" width="180" height="40" rx="6"/>
  <text x="790" y="1070" text-anchor="middle" class="h2">Telegram Send</text>

  <path class="conn" d="M 580 1023 L 700 1005" marker-end="url(#arrow)"/>
  <path class="conn" d="M 580 1047 L 700 1065" marker-end="url(#arrow)"/>

  <!-- dotted attachment note -->
  <path class="conn-dot" d="M 560 1005 L 560 970 L 1020 970 L 1020 985"/>
  <rect class="box p-cyan" x="930" y="985" width="250" height="44" rx="6"/>
  <text x="1055" y="1011" text-anchor="middle" class="sub">Memory + Skills attached</text>

  <!-- toolbox cluster -->
  <path class="conn-dot" d="M 480 1065 L 480 1115"/>
  <rect class="box p-green" x="380" y="1115" width="560" height="80" rx="8"/>
  <text x="660" y="1139" text-anchor="middle" class="h2 accent-green">Coding toolbox (8 tools)</text>
  <text x="660" y="1161" text-anchor="middle" class="small">files &#183; fs search &#183; shell &#183; processes</text>
  <text x="660" y="1179" text-anchor="middle" class="small">browser &#183; web search &#183; todos</text>

  <text x="50" y="1225" class="sub"><tspan class="accent-green">Use when:</tspan> your AI needs to actually ship code - refactor, build, debug.</text>

  <!-- Footer -->
  <text x="620" y="1285" text-anchor="middle" class="sub">All three are real .json files in the .opencompany/workflows folder. Open them on the canvas, edit anything, save your own version.</text>
</svg>
